<svg 
	xmlns:rdf="http://www.w3.org/1999/02/22-rdf-syntax-ns#" 
	xmlns="http://www.w3.org/2000/svg" 
	height="900px" 
	viewBox="0 0 1200 900" 
	width="1200px" 
	version="1.1" 
>
	<circle opacity="0.5" cx="600" cy="450" r="200" fill="#fff"/>
	<g fill="#2d2d2d" opacity="0.7">
		<path d="m493.47 367.51c-3.8899 0.13646-6.9774 3.3258-6.9774 7.2476v7.9244h-1.9813c-0.1219 0-0.2438-0.005-0.3748 0-0.0609 0-0.11189-0.005-0.17193 0-7.77 0.31-13.96 6.68-13.96 14.53v120.75c0 8.0508 6.4679 14.527 14.512 14.527h230.97c8.0544 0 14.513-6.4761 14.513-14.527v-120.75c0-8.0399-6.4607-14.525-14.513-14.525h-172.87v-7.9244c0-4.0154-3.2294-7.2476-7.2566-7.2476h-41.6-0.29292zm182.03 25.271h0.0709 0.22288 36.283c1.834 0 3.3168 1.4637 3.3168 3.2886v18.112c0 1.844-1.4828 3.3158-3.3168 3.3158h-36.283c-1.8385 0-3.2958-1.471-3.2958-3.3158v-18.112c0-1.7321 1.3054-3.1485 3.002-3.2886zm-76.863 12.005h0.34568 0.33477 0.68045c29.143 0 52.792 23.668 52.792 52.801 0 29.14-23.649 52.789-52.792 52.789s-52.778-23.648-52.778-52.789c0-28.685 22.902-52.08 51.417-52.801z"/>
		<path d="m633.98 457.58c0 18.775-15.216 33.987-33.983 33.987s-33.978-15.215-33.978-33.987c0-18.761 15.209-33.985 33.978-33.985s33.983 15.225 33.983 33.985z"/>
	</g>
</svg>
