<svg 
	xmlns:rdf="http://www.w3.org/1999/02/22-rdf-syntax-ns#" 
	xmlns="http://www.w3.org/2000/svg" 
	height="900" 
	width="600" 
	viewBox="0 0 600 900" 
	version="1.1" 
>
	<circle opacity="0.5" cx="300" cy="450" r="140" fill="#fff"/>
	<g fill="#2d2d2d" opacity="0.7">
		<path d="m225.43 392.26c-2.7229 0.0955-4.8842 2.3281-4.8842 5.0733v5.547h-1.3869c-0.0853 0-0.17066-0.004-0.26236 0-0.0426 0-0.0783-0.004-0.12035 0-5.45 0.21-9.78 4.67-9.78 10.17v84.525c0 5.6356 4.5276 10.169 10.159 10.169h161.68c5.6381 0 10.159-4.5333 10.159-10.169v-84.525c0-5.6279-4.5225-10.168-10.159-10.168h-121.01v-5.547c0-2.8108-2.2606-5.0733-5.0796-5.0733h-29.12-0.20504zm127.42 17.69h0.0496 0.15602 25.398c1.2838 0 2.3217 1.0246 2.3217 2.302v12.678c0 1.2908-1.038 2.3211-2.3217 2.3211h-25.398c-1.287 0-2.3071-1.0297-2.3071-2.3211v-12.678c0-1.2124 0.91379-2.2039 2.1014-2.302zm-53.804 8.4037h0.24197 0.23434 0.47632c20.4 0 36.955 16.568 36.955 36.961 0 20.398-16.555 36.952-36.955 36.952s-36.944-16.554-36.944-36.952c0-20.08 16.032-36.456 35.992-36.961z"/>
		<path d="m323.79 455.31c0 13.143-10.651 23.791-23.788 23.791s-23.785-10.65-23.785-23.791c0-13.132 10.646-23.79 23.785-23.79 13.138 0 23.788 10.657 23.788 23.79z"/>
	</g>
</svg>
