<?xml version="1.0" encoding="utf-8"?>
<!-- Generator: Adobe Illustrator 13.0.0, SVG Export Plug-In . SVG Version: 6.00 Build 14948)  -->
<!DOCTYPE svg PUBLIC "-//W3C//DTD SVG 1.1//EN" "http://www.w3.org/Graphics/SVG/1.1/DTD/svg11.dtd">
<svg version="1.1"
	 id="Calque_1" xmlns:dc="http://purl.org/dc/elements/1.1/" xmlns:cc="http://creativecommons.org/ns#" xmlns:rdf="http://www.w3.org/1999/02/22-rdf-syntax-ns#" xmlns:svg="http://www.w3.org/2000/svg"
	 xmlns="http://www.w3.org/2000/svg" xmlns:xlink="http://www.w3.org/1999/xlink" x="0px" y="0px" width="600px" height="900px"
	 viewBox="301.5 169.75 600 900" enable-background="new 301.5 169.75 600 900" xml:space="preserve">
<rect x="301.5" y="169.75" opacity="0.5" fill="#FFFFFF" width="600" height="900"/>
<g id="g3507" opacity="0.5">
	<path id="path3509" fill="#2D2D2D" d="M484.395,529.074c-4.276,0.15-7.67,3.656-7.67,7.967v8.711h-2.178
		c-0.134,0-0.268-0.006-0.412,0c-0.067,0-0.123-0.006-0.189,0c-8.552,0.332-15.351,7.334-15.351,15.967v132.736
		c0,8.85,7.11,15.969,15.953,15.969h253.903c8.854,0,15.954-7.119,15.954-15.969V561.719c0-8.838-7.102-15.967-15.954-15.967
		H538.424v-8.711c0-4.414-3.55-7.967-7.977-7.967h-45.73C484.611,529.074,484.499,529.074,484.395,529.074z M684.495,556.854
		c0.021,0,0.056,0,0.078,0c0.083,0,0.167,0,0.245,0h39.885c2.016,0,3.646,1.609,3.646,3.615v19.91c0,2.027-1.63,3.645-3.646,3.645
		h-39.885c-2.021,0-3.623-1.617-3.623-3.645v-19.91C681.195,558.565,682.63,557.008,684.495,556.854z M600.002,570.051
		c0.123,0,0.245,0,0.38,0c0.122,0,0.245,0,0.368,0c0.245,0,0.497,0,0.748,0c32.036,0,58.033,26.018,58.033,58.043
		c0,32.033-25.997,58.029-58.033,58.029s-58.017-25.996-58.017-58.029C543.481,596.561,568.657,570.844,600.002,570.051
		L600.002,570.051z"/>
	<path id="path3511" fill="#2D2D2D" d="M638.854,628.086c0,20.639-16.726,37.361-37.356,37.361s-37.351-16.725-37.351-37.361
		c0-20.623,16.719-37.359,37.351-37.359S638.854,607.463,638.854,628.086z"/>
</g>
</svg>
