<?xml version="1.0" encoding="utf-8"?>
<!DOCTYPE svg PUBLIC "-//W3C//DTD SVG 1.1//EN" "http://www.w3.org/Graphics/SVG/1.1/DTD/svg11.dtd">
<svg version="1.1" id="Calque_1" xmlns="http://www.w3.org/2000/svg" xmlns:xlink="http://www.w3.org/1999/xlink" x="0px" y="0px"
	 width="900px" height="450px" viewBox="0 0 900 450" enable-background="new 0 0 900 450" xml:space="preserve">
<rect y="1.11" opacity="0.5" fill="#FFFFFF" enable-background="new    " width="900" height="450"/>
<g id="g3507" opacity="0.5">
	<path id="path3509" fill="#2D2D2D" d="M332.895,135.436c-4.275,0.15-7.67,3.656-7.67,7.967v8.712h-2.178
		c-0.134,0-0.268-0.007-0.412,0c-0.066,0-0.123-0.007-0.188,0c-8.553,0.331-15.352,7.334-15.352,15.967v132.735
		c0,8.851,7.11,15.97,15.953,15.97h253.903c8.854,0,15.954-7.119,15.954-15.97V168.081c0-8.838-7.103-15.967-15.954-15.967H386.924
		v-8.711c0-4.414-3.55-7.968-7.977-7.968h-45.73C333.111,135.436,332.999,135.436,332.895,135.436z M532.995,163.216
		c0.021,0,0.056,0,0.078,0c0.083,0,0.167,0,0.245,0h39.885c2.016,0,3.646,1.609,3.646,3.615v19.91c0,2.026-1.63,3.645-3.646,3.645
		h-39.885c-2.021,0-3.623-1.617-3.623-3.645v-19.91C529.695,164.927,531.13,163.37,532.995,163.216z M448.502,176.413
		c0.123,0,0.245,0,0.38,0c0.122,0,0.245,0,0.368,0c0.245,0,0.497,0,0.748,0c32.036,0,58.033,26.018,58.033,58.043
		c0,32.033-25.997,58.028-58.033,58.028s-58.017-25.995-58.017-58.028C391.981,202.923,417.157,177.206,448.502,176.413
		L448.502,176.413z"/>
	<path id="path3511" fill="#2D2D2D" d="M487.354,234.448c0,20.639-16.727,37.36-37.356,37.36s-37.351-16.725-37.351-37.36
		c0-20.623,16.719-37.359,37.351-37.359S487.354,213.825,487.354,234.448z"/>
</g>
</svg>
