<svg 
	xmlns:rdf="http://www.w3.org/1999/02/22-rdf-syntax-ns#" 
	xmlns="http://www.w3.org/2000/svg" 
	height="1200px" 
	width="900px" 
	version="1.1" 
	viewBox="0 0 900 1200"
>
	<circle opacity="0.5" cx="450" cy="600" r="210" fill="#fff"/>
	<g fill="#2d2d2d" opacity=".7">
		<path d="m347.57 520.69c-3.7402 0.1312-6.709 3.1979-6.709 6.9688v7.6196h-1.9051c-0.11721 0-0.23442-0.005-0.36038 0-0.0586 0-0.10759-0.005-0.16532 0-7.47 0.28-13.42 6.41-13.42 13.96v116.11c0 7.7412 6.2192 13.968 13.954 13.968h222.09c7.7446 0 13.955-6.227 13.955-13.968v-116.11c0-7.7307-6.2122-13.966-13.955-13.966h-166.22v-7.6196c0-3.861-3.1052-6.9688-6.9775-6.9688h-40-0.28166zm175.03 24.299h0.0682 0.21431 34.888c1.7634 0 3.1892 1.4074 3.1892 3.1621v17.415c0 1.773-1.4258 3.1883-3.1892 3.1883h-34.888c-1.7678 0-3.1691-1.4144-3.1691-3.1883v-17.415c0-1.6654 1.2552-3.0274 2.8865-3.1621zm-73.907 11.544h0.33239 0.32189 0.65428c28.022 0 50.762 22.758 50.762 50.771 0 28.019-22.74 50.758-50.762 50.758s-50.748-22.739-50.748-50.758c0-27.582 22.022-50.077 49.439-50.771z"/>
		<path d="m482.67 607.29c0 18.053-14.63 32.68-32.676 32.68-18.045 0-32.671-14.629-32.671-32.68 0-18.039 14.624-32.678 32.671-32.678s32.676 14.639 32.676 32.678z"/>
	</g>
</svg>
