<svg 
    xmlns:rdf="http://www.w3.org/1999/02/22-rdf-syntax-ns#" 
    xmlns="http://www.w3.org/2000/svg" 
    height="500" 
    width="1000" 
    version="1.1" viewBox="0 0 1000 500"
>
    <circle opacity=".5" cx="500" cy="250" r="140" fill="#fff"/>
    <g fill="#2d2d2d" opacity=".7">
        <path d="m428.09 194.32c-2.6258 0.0921-4.71 2.2451-4.71 4.8924v5.3493h-1.3375c-0.0823 0-0.16458-0.004-0.253 0-0.0412 0-0.0755-0.004-0.11607 0-5.2516 0.20387-9.4268 4.5037-9.4268 9.8051v81.514c0 5.4346 4.3661 9.8063 9.7965 9.8063h155.92c5.4371 0 9.7971-4.3717 9.7971-9.8063v-81.514c0-5.4273-4.3612-9.8051-9.7971-9.8051h-116.69v-5.3493c0-2.7106-2.18-4.8924-4.8986-4.8924h-28.082-0.19774zm122.88 17.059h0.0479 0.15045 24.493c1.238 0 2.239 0.98806 2.239 2.2199v12.226c0 1.2448-1.001 2.2383-2.239 2.2383h-24.493c-1.2411 0-2.2248-0.99298-2.2248-2.2383v-12.226c0-1.1692 0.88121-2.1253 2.0265-2.2199zm-51.886 8.1041h0.23336 0.22598 0.45933c19.673 0 35.637 15.977 35.637 35.643 0 19.671-15.964 35.635-35.637 35.635s-35.627-15.964-35.627-35.635c0-19.364 15.46-35.156 34.709-35.643z"/>
        <path d="m522.93 255.12c0 12.674-10.271 22.943-22.94 22.943s-22.937-10.271-22.937-22.943c0-12.664 10.267-22.942 22.937-22.942s22.94 10.277 22.94 22.942z"/>
    </g>
</svg>
