<svg 
    xmlns:rdf="http://www.w3.org/1999/02/22-rdf-syntax-ns#" 
    xmlns="http://www.w3.org/2000/svg" 
    height="1000" 
    width="1000" 
    version="1.1" 
    viewBox="0 0 1000 1000"
>
    <circle opacity="0.5" cy="500" cx="500" r="200" fill="#fff"/>
    <g fill="#2d2d2d" opacity="0.7">
        <path d="m382.9 409.32c-4.276 0.15-7.67 3.656-7.67 7.967v8.711h-2.178c-0.134 0-0.268-0.006-0.412 0-0.067 0-0.123-0.006-0.189 0-8.552 0.332-15.351 7.334-15.351 15.967v132.74c0 8.85 7.11 15.969 15.953 15.969h253.9c8.854 0 15.954-7.119 15.954-15.969v-132.74c0-8.838-7.102-15.967-15.954-15.967h-190.03v-8.711c0-4.414-3.55-7.967-7.977-7.967h-45.73-0.322zm200.1 27.78h0.078 0.245 39.885c2.016 0 3.646 1.609 3.646 3.615v19.91c0 2.027-1.63 3.645-3.646 3.645h-39.885c-2.021 0-3.623-1.617-3.623-3.645v-19.91c0-1.904 1.435-3.461 3.3-3.615zm-84.493 13.197h0.38 0.368 0.748c32.036 0 58.033 26.018 58.033 58.043 0 32.033-25.997 58.029-58.033 58.029s-58.017-25.996-58.017-58.029c0-31.533 25.176-57.25 56.521-58.043z"/>
        <path d="m537.35 508.34c0 20.639-16.726 37.361-37.356 37.361s-37.351-16.725-37.351-37.361c0-20.623 16.719-37.359 37.351-37.359s37.356 16.736 37.356 37.359z"/>
    </g>
</svg>
