<svg xmlns="http://www.w3.org/2000/svg" width="512" height="512" viewBox="0 0 512 512"><path d="M306.175 255.996l138.998-138.998c13.95-13.95 13.978-36.55 0-50.527-13.978-13.972-36.565-13.95-50.516 0l-139.007 139L116.66 66.488c-13.977-13.976-36.562-13.976-50.54-.01-13.98 13.975-13.952 36.56.026 50.54l138.974 138.98-139 138.996c-13.95 13.95-13.98 36.552 0 50.53 13.978 13.964 36.563 13.95 50.54-.015l138.984-138.982L394.63 445.523c13.978 13.95 36.564 13.964 50.542-.015 13.978-13.964 13.95-36.565 0-50.517L306.175 256z"/></svg>