<svg 
	xmlns:rdf="http://www.w3.org/1999/02/22-rdf-syntax-ns#" 
	xmlns="http://www.w3.org/2000/svg" 
	width="900" 
	height="600" 
	viewBox="0 0 600 900"
	version="1.1" 
>
	<g transform="scale(1.5) translate(-100 -150)">	
		<circle opacity=".5" cy="475" cx="300" r="125" fill="#fff"/>
		<g fill="#2d2d2d" opacity="0.7">
			<path d="m235.79 426.28c-2.3445 0.0822-4.2054 2.0046-4.2054 4.3682v4.7762h-1.1942c-0.0735 0-0.14695-0.004-0.22589 0-0.0368 0-0.0674-0.004-0.10364 0-4.6889 0.18203-8.4168 4.0212-8.4168 8.7546v72.78c0 4.8523 3.8983 8.7556 8.7469 8.7556h139.21c4.8546 0 8.7474-3.9033 8.7474-8.7556v-72.78c0-4.8458-3.8939-8.7546-8.7474-8.7546h-104.19v-4.7762c0-2.4202-1.9464-4.3682-4.3738-4.3682h-25.073-0.17655zm109.71 15.231h0.0428 0.13433 21.869c1.1054 0 1.9991 0.8822 1.9991 1.982v10.916c0 1.1114-0.89375 1.9985-1.9991 1.9985h-21.869c-1.1081 0-1.9864-0.88659-1.9864-1.9985v-10.916c0-1.0439 0.78679-1.8976 1.8094-1.982zm-46.327 7.2358h0.20836 0.20177 0.41011c17.565 0 31.819 14.265 31.819 31.824 0 17.563-14.254 31.817-31.819 31.817s-31.81-14.254-31.81-31.817c0-17.289 13.804-31.389 30.99-31.824z"/>
			<path d="m320.47 480.57c0 11.316-9.1705 20.485-20.482 20.485s-20.479-9.1705-20.479-20.485c0-11.307 9.167-20.484 20.479-20.484s20.482 9.1759 20.482 20.484z"/>
		</g>
	</g>
</svg>
