<svg id="logo" viewBox="0 0 400 152">
  <title>
    Amorce
  </title>
  <desc>
    Web Starter Kit
  </desc>
  <path d="M44.185 97.27H58.93v14.745H-.043V82.532H29.44V67.79H14.702V53.042h29.483V97.27zM58.93 53.043h29.48V67.79h14.744v44.225H88.412V67.79H73.674v44.225H58.93V53.043zm44.226 0H117.9V67.79h14.74v44.225H117.9V67.79h-14.744V53.042zm193.608 0h44.23V67.79h-29.487v29.48h29.486v14.744h-44.23v-58.97zm103.194 29.49h-29.486V97.27H355.73V67.79h14.742V53.042h29.486v29.49zm0 29.482h-29.486V97.27h29.486v14.745zM223.052 53.043h58.972V67.79h-29.488v29.48h14.745v14.744h-44.226V97.27H237.8V67.79h-14.747V53.042z" id="txt" fill="#666"/>
  <g id="bomb">
    <g id="meche">
      <path fill="gray" d="M177.907 24.845l-1.23-5.196c-14.343 3.394-23.22 17.776-19.828 32.12l5.193-1.228c-2.716-11.478 4.388-22.982 15.862-25.7z"/>
      <g id="etincelles">
        <path id="etincelle-rouge" fill="#F00" d="M179.672 11.978L192.02 3.94l-4.703 13.96 11.457 9.256-14.727-.15-5.263 13.755-4.406-14.05-14.71-.76 12.005-8.53-3.827-14.22z"/>
        <path id="etincelle-jaune" fill="#F7931E" d="M184.636 13.446l14.7-.933-10.95 9.85 5.43 13.695-12.756-7.374-11.34 9.396 3.07-14.407-12.443-7.888L175 14.257l3.65-14.27z"/>
      </g>
    </g>
    <g id="corps">
      <circle cx="172.318" cy="104.989" r="44.99"/>
      <path d="M179.914 72.717L151.06 79.55l-6.83-28.855 28.856-6.83z"/>
      <g id="reflet" fill="#fff" fill-opacity=".5">
        <path d="M195.896 69.845c10.454 6.45 15.434 17.326 11.137 24.293-4.304 6.97-16.263 7.393-26.717.938-10.45-6.447-15.436-17.33-11.133-24.298 4.296-6.968 16.26-7.388 26.713-.933z"/>
        <path d="M194.306 71.846c6.1 3.763 9.246 9.722 7.034 13.306-2.212 3.59-8.945 3.447-15.043-.324-6.093-3.762-9.247-9.723-7.034-13.312 2.21-3.585 8.945-3.44 15.043.33z"/>
      </g>
    </g>
  </g>
</svg>

