<?xml version="1.0" encoding="utf-8"?>
<!DOCTYPE svg PUBLIC "-//W3C//DTD SVG 1.1//EN" "http://www.w3.org/Graphics/SVG/1.1/DTD/svg11.dtd">
<svg version="1.1" id="logo_amorce" xmlns="http://www.w3.org/2000/svg" xmlns:xlink="http://www.w3.org/1999/xlink" x="0px"
	 y="0px" width="400px" height="150px" viewBox="0 0 400 150" enable-background="new 0 0 400 150" xml:space="preserve">
		<title>Amorce</title>
		<desc>Web Starter Kit</desc>

		<g id="txt" fill="#666666">
			<path d="M44.185,97.271h14.744v14.744H-0.042V82.532H29.44V67.789H14.702V53.043h29.483V97.271z"/>
			<path d="M58.929,53.043h29.483v14.746h14.744v44.226H88.412V67.789H73.674v44.226H58.929V53.043z M103.156,53.043
				h14.745v14.746h14.739v44.226h-14.739V67.789h-14.745V53.043z"/>
			<path d="M296.764,53.043h44.229v14.746h-29.486v29.481h29.486v14.744h-44.229V53.043z"/>
			<path d="M399.958,82.532h-29.486v14.738h-14.742V67.789h14.742V53.043h29.486V82.532z M399.958,112.015h-29.486
				V97.271h29.486V112.015z"/>
			<path d="M223.052,53.043h58.972v14.746h-29.488v29.481h14.745v14.744h-44.229V97.271h14.746V67.789h-14.746V53.043z
				"/>
		</g>
		<g id="bomb">
			<g id="meche">
				<path fill="#808080" d="M177.907,24.845l-1.23-5.196c-14.343,3.397-23.221,17.779-19.828,32.123l5.196-1.228
					C159.329,39.066,166.433,27.562,177.907,24.845z"/>
				<g id="etincelles">
					<polygon id="etincelle-rouge" fill="#FF0000" points="179.672,11.978 192.019,3.94 187.317,17.901 198.774,27.156 184.047,27.005 
						178.784,40.761 174.378,26.708 159.667,25.95 171.673,17.419 167.846,3.197 		"/>
					<polygon id="etincelle-jaune" fill="#F7931E" points="184.636,13.446 199.336,12.513 188.387,22.362 193.817,36.058 
						181.06,28.684 169.719,38.08 172.789,23.673 160.347,15.785 175,14.257 178.65,-0.012 		"/>			
				</g>
			</g>
			<g id="corps">
				<circle cx="172.318" cy="104.989" r="44.99"/>
				<polygon points="179.914,72.717 151.059,79.55 144.231,50.695 173.086,43.864 		"/>
				<g id="reflet">
					<path fill="#fff" fill-opacity=".5" d="M195.896,69.845c10.454,6.449,15.434,17.326,11.137,24.293c-4.304,6.971-16.263,7.393-26.717,0.938
						c-10.449-6.447-15.436-17.33-11.133-24.298C173.479,63.81,185.442,63.39,195.896,69.845z"/>
					<path fill="#fff" fill-opacity=".5" d="M194.306,71.846c6.099,3.763,9.246,9.722,7.034,13.306c-2.212,3.59-8.945,3.447-15.043-0.324
						c-6.093-3.762-9.247-9.723-7.034-13.312C181.472,67.931,188.208,68.076,194.306,71.846z"/>
				</g>
			</g>
		</g>
</svg>
